#!OML:ASF H:\Dans Jumps\Project 1\Capture day 1\Session 1\subject.ASF
:FULLY-SPECIFIED
:DEGREES
414
root -0.274147 15.4715 -0.361697 -7.98904 1.51922 -2.88076
lowerback 6.86707 -0.556568 -0.918783
upperback 4.00181 -0.782336 2.25033
thorax 0.322169 -0.431122 2.88415
lowerneck -11.4794 0.32843 -1.71924
upperneck 33.785 0.395836 1.57634
head 13.228 0.163684 0.979471
rclavicle -1.67725e-015 -4.57205e-015
rhumerus -21.3807 -21.0724 -80.1485
rradius 22.0257
rwrist 40.8068
rhand -23.2726 -26.4194
rfingers 7.12502
rthumb 3.1798 -56.3755
lclavicle -1.67725e-015 -4.57205e-015
lhumerus -6.64876 0.80483 91.1987
lradius 18.5337
lwrist 8.61054
lhand -32.0494 -12.2865
lfingers 7.12502
lthumb -5.29647 17.6273
rfemur -29.2846 -5.74695 20.379
rtibia 63.5023
rfoot -23.0623 -2.89773
rtoes -0.562499
lfemur -30.3811 8.28566 -13.0442
ltibia 62.0587
lfoot -18.1698 8.48098
ltoes -12.3369
415
root -0.262692 15.4249 -0.281132 -8.1445 1.4513 -2.79786
lowerback 6.95221 -0.58327 -0.819414
upperback 4.05512 -0.812846 2.23359
thorax 0.330004 -0.445159 2.81359
lowerneck -11.5163 0.396595 -1.64106
upperneck 34.0133 0.525106 1.43052
head 13.3336 0.209934 0.929892
rclavicle 1.2101e-014 -1.03368e-014
rhumerus -21.4159 -20.2166 -80.3782
rradius 22.2084
rwrist 40.1095
rhand -23.2414 -26.2022
rfingers 7.12502
rthumb 3.20998 -56.1577
lclavicle 1.2101e-014 -1.03368e-014
lhumerus -7.36361 0.936731 90.991
lradius 18.201
lwrist 8.44819
lhand -31.9063 -11.9239
lfingers 7.12502
lthumb -5.15823 17.9933
rfemur -29.2107 -6.25005 20.206
rtibia 64.3076
rfoot -23.8078 -2.75814
rtoes -0.953633
lfemur -30.225 8.25125 -13.1416
ltibia 62.8051
lfoot -18.554 9.39436
ltoes -13.4005
416
root -0.251037 15.3995 -0.206099 -8.07108 1.37059 -2.61682
lowerback 6.86175 -0.595608 -0.809166
upperback 4.03105 -0.829001 2.18244
thorax 0.35498 -0.452567 2.75476
lowerneck -11.5307 0.45237 -1.52803
upperneck 34.3207 0.627569 1.28252
head 13.4706 0.247937 0.869966
rclavicle -1.46479e-014 7.7526e-015
rhumerus -21.4838 -19.246 -80.621
rradius 22.3658
rwrist 39.5468
rhand -23.2185 -25.975
rfingers 7.12502
rthumb 3.23211 -55.9302
lclavicle -1.46479e-014 7.7526e-015
lhumerus -8.13501 0.996917 90.7698
lradius 17.8459
lwrist 8.18965
lhand -31.4591 -11.3267
lfingers 7.12502
lthumb -4.72645 18.6005
rfemur -29.2712 -6.70943 19.9523
rtibia 64.8351
rfoot -24.3835 -2.58063
rtoes -1.2101
lfemur -30.1767 8.18444 -13.3771
ltibia 63.2451
lfoot -18.7944 10.1686
ltoes -14.0368
417
root -0.240622 15.3902 -0.13613 -7.7896 1.24451 -2.3999
lowerback 6.61407 -0.585029 -0.85333
upperback 3.94456 -0.817313 2.12686
thorax 0.401808 -0.446553 2.71843
lowerneck -11.5105 0.489668 -1.4109
upperneck 34.6339 0.697064 1.14735
head 13.6047 0.273605 0.80906
rclavicle 5.46658e-016 1.88845e-014
rhumerus -21.5843 -18.2718 -80.8376
rradius 22.5074
rwrist 39.211
rhand -23.1842 -25.7415
rfingers 7.12502
rthumb 3.26525 -55.6962
lclavicle 5.46658e-016 1.88845e-014
lhumerus -8.95264 1.04528 90.5467
lradius 17.4634
lwrist 7.7281
lhand -30.7935 -10.5861
lfingers 7.12502
lthumb -4.0837 19.3546
rfemur -29.4823 -7.03658 19.7038
rtibia 65.1536
rfoot -24.8225 -2.42486
rtoes -1.36504
lfemur -30.2588 8.10172 -13.6613
ltibia 63.4744
lfoot -18.9544 10.8098
ltoes -14.3612
418
root -0.231756 15.3937 -0.0716809 -7.36502 1.05854 -2.20859
lowerback 6.2741 -0.552931 -0.895951
upperback 3.82433 -0.776326 2.08583
thorax 0.463777 -0.425843 2.69367
lowerneck -11.4831 0.509169 -1.32431
upperneck 34.915 0.733463 1.05518
head 13.7243 0.286706 0.765081
rclavicle -1.31695e-014 1.68967e-014
rhumerus -21.7159 -17.3956 -81.0091
rradius 22.653
rwrist 39.0881
rhand -23.1317 -25.5175
rfingers 7.12502
rthumb 3.31589 -55.4715
lclavicle -1.31695e-014 1.68967e-014
lhumerus -9.82006 1.10121 90.3212
lradius 17.0874
lwrist 7.05586
lhand -30.0055 -9.7753
lfingers 7.12502
lthumb -3.32276 20.1786
rfemur -29.7857 -7.17778 19.5277
rtibia 65.2897
rfoot -25.1426 -2.32953
rtoes -1.46096
lfemur -30.4302 8.03361 -13.9117
ltibia 63.5428
lfoot -19.0612 11.3158
ltoes -14.4619
419
root -0.224285 15.41 -0.0127678 -6.88489 0.81252 -2.0616
lowerback 5.92267 -0.501184 -0.912265
upperback 3.70644 -0.707561 2.05927
thorax 0.533168 -0.391029 2.66783
lowerneck -11.4705 0.518611 -1.26114
upperneck 35.1331 0.748811 0.999024
head 13.8198 0.292701 0.735771
rclavicle -8.0632e-015 2.74323e-014
rhumerus -21.887 -16.6738 -81.1382
rradius 22.8501
rwrist 39.042
rhand -23.0815 -25.332
rfingers 7.12502
rthumb 3.36443 -55.2852
lclavicle -8.0632e-015 2.74323e-014
lhumerus -10.7451 1.13321 90.0902
lradius 16.7547
lwrist 6.22565
lhand -29.226 -9.00611
lfingers 7.12502
lthumb -2.56999 20.9582
rfemur -30.0798 -7.12585 19.4324
rtibia 65.2407
rfoot -25.3403 -2.31427
rtoes -1.54835
lfemur -30.5931 7.99023 -14.1006
ltibia 63.4531
lfoot -19.1164 11.7044
ltoes -14.3941
420
root -0.217824 15.4397 0.040755 -6.42344 0.525609 -1.95422
lowerback 5.62521 -0.440064 -0.903055
upperback 3.61916 -0.625278 2.04365
thorax 0.603572 -0.349424 2.6393
lowerneck -11.4682 0.526497 -1.22816
upperneck 35.2569 0.75792 0.976764
head 13.8753 0.296985 0.723486
rclavicle 2.08724e-015 -9.54166e-015
rhumerus -22.0948 -16.1353 -81.2304
rradius 23.1152
rwrist 38.932
rhand -23.0403 -25.2509
rfingers 7.12502
rthumb 3.40415 -55.2035
lclavicle 2.08724e-015 -9.54166e-015
lhumerus -11.7459 1.14348 89.8524
lradius 16.5193
lwrist 5.32683
lhand -28.5518 -8.31458
lfingers 7.12502
lthumb -1.91886 21.6565
rfemur -30.2656 -6.90562 19.3938
rtibia 64.9976
rfoot -25.417 -2.36683
rtoes -1.5787
lfemur -30.653 7.96539 -14.2308
ltibia 63.1884
lfoot -19.1209 11.9831
ltoes -14.1825
421
root -0.211886 15.4833 0.0889865 -6.02539 0.219138 -1.8717
lowerback 5.41961 -0.377681 -0.873767
upperback 3.57913 -0.540906 2.03058
thorax 0.671585 -0.306858 2.60334
lowerneck -11.4749 0.536345 -1.22209
upperneck 35.2738 0.768315 0.979144
head 13.8843 0.302056 0.725011
rclavicle 7.7526e-015 -6.36111e-015
rhumerus -22.3358 -15.7806 -81.2947
rradius 23.4548
rwrist 38.6595
rhand -23.0038 -25.2885
rfingers 7.12502
rthumb 3.43943 -55.2405
lclavicle 7.7526e-015 -6.36111e-015
lhumerus -12.8154 1.13781 89.6084
lradius 16.4013
lwrist 4.48212
lhand -27.978 -7.52712
lfingers 7.12502
lthumb -1.3647 22.4483
rfemur -30.2877 -6.56114 19.3817
rtibia 64.5546
rfoot -25.3707 -2.45967
rtoes -1.49094
lfemur -30.5473 7.94451 -14.3213
ltibia 62.724
lfoot -19.0667 12.171
ltoes -13.8687
422
root -0.206028 15.5403 0.132468 -5.70056 -0.0934306 -1.78941
lowerback 5.31473 -0.320066 -0.84411
upperback 3.58176 -0.463309 2.01187
thorax 0.728057 -0.267874 2.56282
lowerneck -11.4855 0.555079 -1.22486
upperneck 35.1974 0.793039 0.984537
head 13.8517 0.313013 0.73049
rclavicle -7.42958e-015 -1.82882e-014
rhumerus -22.6133 -15.5937 -81.3317
rradius 23.8428
rwrist 38.2127
rhand -22.9607 -25.4158
rfingers 7.12502
rthumb 3.48101 -55.3672
lclavicle -7.42958e-015 -1.82882e-014
lhumerus -13.9585 1.14111 89.3581
lradius 16.3848
lwrist 3.77297
lhand -27.5226 -6.75574
lfingers 7.12502
lthumb -0.924791 23.222
rfemur -30.1366 -6.1308 19.3618
rtibia 63.9173
rfoot -25.2075 -2.56735
rtoes -1.25844
lfemur -30.2591 7.92512 -14.4037
ltibia 62.0487
lfoot -18.9485 12.2786
ltoes -13.467
423
root -0.199764 15.6096 0.171695 -5.43507 -0.391837 -1.6995
lowerback 5.2962 -0.275419 -0.817648
upperback 3.6164 -0.403386 1.98428
thorax 0.770489 -0.237835 2.51652
lowerneck -11.4883 0.583016 -1.22971
upperneck 35.0422 0.833516 0.984463
head 13.7818 0.330183 0.735574
rclavicle 2.93207e-015 3.4191e-014
rhumerus -22.9152 -15.5321 -81.346
rradius 24.2385
rwrist 37.6104
rhand -22.9106 -25.5543
rfingers 7.12502
rthumb 3.52943 -55.5048
lclavicle 2.93207e-015 3.4191e-014
lhumerus -15.1563 1.18101 89.1009
lradius 16.43
lwrist 3.27807
lhand -27.174 -6.01111
lfingers 7.12502
lthumb -0.588126 23.9678
rfemur -29.8345 -5.65882 19.3219
rtibia 63.098
rfoot -24.9357 -2.6765
rtoes -0.923203
lfemur -29.8106 7.89797 -14.4948
ltibia 61.1663
lfoot -18.7616 12.3176
ltoes -13.0052
424
root -0.192764 15.689 0.207526 -5.195 -0.663177 -1.60794
lowerback 5.32666 -0.249334 -0.788599
upperback 3.66568 -0.368167 1.95114
thorax 0.802046 -0.220071 2.4645
lowerneck -11.4852 0.621067 -1.22672
upperneck 34.8385 0.890904 0.971739
head 13.6891 0.354306 0.73611
rclavicle 6.68413e-015 -1.63003e-014
rhumerus -23.2357 -15.5474 -81.3372
rradius 24.6023
rwrist 36.9173
rhand -22.8367 -25.6695
rfingers 7.12502
rthumb 3.60083 -55.6188
lclavicle 6.68413e-015 -1.63003e-014
lhumerus -16.385 1.28459 88.8397
lradius 16.4747
lwrist 3.02921
lhand -26.9369 -5.3868
lfingers 7.12502
lthumb -0.359106 24.5926
rfemur -29.4305 -5.17491 19.2681
rtibia 62.1178
rfoot -24.5669 -2.77568
rtoes -0.523499
lfemur -29.256 7.86233 -14.5955
ltibia 60.0995
lfoot -18.5112 12.2912
ltoes -12.4963
425
root -0.185037 15.7766 0.24047 -4.94335 -0.887902 -1.5242
lowerback 5.36351 -0.248551 -0.751893
upperback 3.71441 -0.366291 1.91668
thorax 0.831088 -0.218801 2.40835
lowerneck -11.4682 0.667232 -1.2167
upperneck 34.609 0.962109 0.94669
head 13.5825 0.383888 0.732108
rclavicle -4.96962e-016 -4.37326e-015
rhumerus -23.5637 -15.5908 -81.3091
rradius 24.9024
rwrist 36.2002
rhand -22.7315 -25.7285
rfingers 7.12502
rthumb 3.7024 -55.6761
lclavicle -4.96962e-016 -4.37326e-015
lhumerus -17.6151 1.45777 88.5753
lradius 16.4566
lwrist 3.00216
lhand -26.8401 -4.95754
lfingers 7.12502
lthumb -0.265667 25.022
rfemur -28.9737 -4.71096 19.2113
rtibia 60.9979
rfoot -24.1161 -2.86051
rtoes -0.0782105
lfemur -28.6572 7.80649 -14.7028
ltibia 58.8786
lfoot -18.2075 12.2012
ltoes -11.94
426
root -0.176704 15.8706 0.271277 -4.64556 -1.05038 -1.45434
lowerback 5.3703 -0.276687 -0.707029
upperback 3.74652 -0.402422 1.88518
thorax 0.861446 -0.236291 2.35221
lowerneck -11.4515 0.718079 -1.19264
upperneck 34.3918 1.04125 0.906755
head 13.4822 0.416731 0.720979
rclavicle 9.93923e-017 1.15295e-014
rhumerus -23.8954 -15.6374 -81.2569
rradius 25.1099
rwrist 35.5594
rhand -22.6002 -25.7202
rfingers 7.12502
rthumb 3.82923 -55.6656
lclavicle 9.93923e-017 1.15295e-014
lhumerus -18.8289 1.71262 88.3058
lradius 16.3462
lwrist 3.14192
lhand -26.857 -4.71357
lfingers 7.12502
lthumb -0.281972 25.266
rfemur -28.5114 -4.29378 19.1578
rtibia 59.7629
rfoot -23.6018 -2.92721
rtoes 0.396539
lfemur -28.0709 7.7208 -14.8173
ltibia 57.5372
lfoot -17.8632 12.0587
ltoes -11.3441
427
root -0.168342 15.9692 0.300305 -4.27757 -1.15175 -1.40866
lowerback 5.31718 -0.329852 -0.649463
upperback 3.7559 -0.471245 1.86089
thorax 0.903025 -0.269866 2.29738
lowerneck -11.4434 0.767655 -1.16321
upperneck 34.1993 1.11836 0.86258
head 13.3954 0.448683 0.707262
rclavicle 2.16178e-015 1.07344e-014
rhumerus -24.224 -15.6776 -81.1796
rradius 25.2135
rwrist 35.0884
rhand -22.4628 -25.6375
rfingers 7.12502
rthumb 3.96188 -55.5805
lclavicle 2.16178e-015 1.07344e-014
lhumerus -19.9981 2.0344 88.0294
lradius 16.1119
lwrist 3.34028
lhand -26.9709 -4.62531
lfingers 7.12502
lthumb -0.392006 25.3541
rfemur -28.0818 -3.92895 19.1233
rtibia 58.435
rfoot -23.0346 -2.98686
rtoes 0.858939
lfemur -27.5398 7.61383 -14.9273
ltibia 56.1062
lfoot -17.4827 11.8725
ltoes -10.7627
